<svg xmlns="http://www.w3.org/2000/svg" width="18" height="18" viewBox="0 0 18 18">
  <path fill="#222222" d="M8.99912531,0 C4.02993731,0 0,4.02938494 0,9.00023062 C0,12.9765752 2.57851913,16.3495901 6.15485362,17.5396753 C6.60514162,17.6225507 6.76923413,17.3446431 6.76923413,17.1059631 C6.76923413,16.8926979 6.76149919,16.3263847 6.75707906,15.5755367 C4.25369981,16.1191974 3.7255095,14.3688763 3.7255095,14.3688763 C3.31610681,13.3290703 2.72603644,13.052268 2.72603644,13.052268 C1.90888875,12.4942427 2.7879165,12.5052924 2.7879165,12.5052924 C3.69125494,12.5688302 4.16640487,13.4329404 4.16640487,13.4329404 C4.969188,14.808114 6.27308887,14.4108664 6.78580931,14.1804737 C6.86757938,13.599243 7.10018156,13.2025478 7.35709444,12.9776805 C5.35870069,12.7506026 3.25754213,11.9782074 3.25754213,8.52950025 C3.25754213,7.54715475 3.60837956,6.74326631 4.18408481,6.11452125 C4.091265,5.886891 3.78241706,4.97139806 4.27248506,3.73269206 C4.27248506,3.73269206 5.02775325,3.49069725 6.74713406,4.65536756 C7.46483175,4.45536281 8.23501744,4.35591281 9.00023062,4.35204506 C9.76489087,4.35591281 10.5345236,4.45536281 11.2533266,4.65536756 C12.9716027,3.49069725 13.7257656,3.73269206 13.7257656,3.73269206 C14.2169383,4.97139806 13.9080909,5.886891 13.8158235,6.11452125 C14.3926335,6.74326631 14.7407091,7.54715475 14.7407091,8.52950025 C14.7407091,11.9870471 12.6362351,12.7478402 10.6317641,12.9704979 C10.9544243,13.2484056 11.2422769,13.7975906 11.2422769,14.6373913 C11.2422769,15.8401845 11.2312266,16.8109279 11.2312266,17.1059631 C11.2312266,17.3468531 11.3936619,17.6269708 11.8500272,17.5391229 C15.4235993,16.3462748 17.9999083,12.9754704 17.9999083,9.00023062 C17.9999083,4.02938494 13.969971,0 8.99912531,0"/>
</svg>
