<svg xmlns="http://www.w3.org/2000/svg" width="120" height="120" viewBox="0 0 120 120">
  <g fill="none" fill-rule="evenodd">
    <circle cx="60" cy="60" r="60" fill="#222222"/>
    <path fill="#FFFFFF" d="M38.8007812,67.8046875 C38.8007812,67.7187496 38.8085937,67.5937508 38.8242188,67.4296875 C38.8398438,67.2656242 38.8554687,67.1250006 38.8710938,67.0078125 L41.0976562,51.2460938 L39.7148438,50.859375 L39.9023438,50.0742188 L42.5039062,49.6640625 L42.9609375,49.9335938 L40.546875,67.1484375 C40.5078123,67.4296889 40.5234371,67.6425774 40.59375,67.7871094 C40.6640629,67.9316413 40.7539057,68.0039062 40.8632812,68.0039062 C41.0351571,68.0039062 41.2207021,67.9453131 41.4199219,67.828125 C41.6191416,67.7109369 41.867186,67.4960953 42.1640625,67.1835938 L42.4570312,67.6875 C42.410156,67.7734379 42.3144538,67.9003898 42.1699219,68.0683594 C42.0253899,68.236329 41.8437511,68.4082022 41.625,68.5839844 C41.4062489,68.7597665 41.1542983,68.9121087 40.8691406,69.0410156 C40.5839829,69.1699225 40.2812516,69.234375 39.9609375,69.234375 C39.562498,69.234375 39.265626,69.1250011 39.0703125,68.90625 C38.874999,68.6874989 38.7851562,68.3203151 38.8007812,67.8046875 Z M45.9375,66.0234375 C45.9375,65.7578112 45.9511717,65.4570329 45.9785156,65.1210938 C46.0058595,64.7851546 46.0390623,64.4355487 46.078125,64.0722656 C46.1171877,63.7089826 46.1621091,63.3417987 46.2128906,62.9707031 C46.2636721,62.5996075 46.3124998,62.2421892 46.359375,61.8984375 L46.9921875,57.3046875 L45.8554688,56.7539062 L46.0078125,55.921875 L48.4101562,55.4179688 L48.8671875,55.6640625 L48.0703125,61.9804688 C48.0234373,62.332033 47.9765627,62.666014 47.9296875,62.9824219 C47.8828123,63.2988297 47.8417971,63.6093735 47.8066406,63.9140625 C47.7714842,64.2187515 47.7421876,64.5195298 47.71875,64.8164062 C47.6953124,65.1132827 47.6835938,65.4179672 47.6835938,65.7304688 C47.6835938,66.1914086 47.7285152,66.5644517 47.8183594,66.8496094 C47.9082036,67.1347671 48.0332023,67.3593742 48.1933594,67.5234375 C48.3535164,67.6875008 48.5468739,67.7988278 48.7734375,67.8574219 C49.0000011,67.9160159 49.2539048,67.9453125 49.5351562,67.9453125 C49.878908,67.9453125 50.2363263,67.8691414 50.6074219,67.7167969 C50.9785175,67.5644524 51.3378889,67.3652356 51.6855469,67.1191406 C52.0332049,66.8730456 52.3593735,66.5917985 52.6640625,66.2753906 C52.9687515,65.9589828 53.2304677,65.6406266 53.4492188,65.3203125 C53.5117191,64.8749978 53.583984,64.3339876 53.6660156,63.6972656 C53.7480473,63.0605437 53.835937,62.3906285 53.9296875,61.6875 C54.023438,60.9843715 54.1152339,60.2812535 54.2050781,59.578125 C54.2949223,58.8749965 54.3769528,58.2343779 54.4511719,57.65625 C54.525391,57.0781221 54.5878904,56.593752 54.6386719,56.203125 C54.6894534,55.812498 54.71875,55.5820316 54.7265625,55.5117188 L56.4492188,55.5117188 L54.9257812,67.1367188 C54.8867186,67.4335952 54.8964841,67.6484368 54.9550781,67.78125 C55.0136722,67.9140632 55.0976557,67.9804688 55.2070312,67.9804688 C55.3789071,67.9804688 55.5683583,67.9179694 55.7753906,67.7929688 C55.9824229,67.6679681 56.2343735,67.4531265 56.53125,67.1484375 L56.8242188,67.6757812 C56.7773435,67.7539066 56.675782,67.8789054 56.5195312,68.0507812 C56.3632805,68.2226571 56.1718761,68.3945304 55.9453125,68.5664062 C55.7187489,68.7382821 55.4589858,68.8886712 55.1660156,69.0175781 C54.8730454,69.146485 54.5664079,69.2109375 54.2460938,69.2109375 C53.8242166,69.2109375 53.5175791,69.0683608 53.3261719,68.7832031 C53.1347647,68.4980454 53.085937,68.1054712 53.1796875,67.6054688 C53.1953126,67.5429684 53.2089843,67.4218759 53.2207031,67.2421875 C53.2324219,67.0624991 53.2460937,66.8828134 53.2617188,66.703125 C53.0117175,67.0156266 52.7285172,67.3222641 52.4121094,67.6230469 C52.0957015,67.9238296 51.7500019,68.1933582 51.375,68.4316406 C50.9999981,68.6699231 50.5957053,68.8632805 50.1621094,69.0117188 C49.7285135,69.160157 49.2734399,69.234375 48.796875,69.234375 C48.3593728,69.234375 47.9648455,69.1816412 47.6132812,69.0761719 C47.261717,68.9707026 46.9609387,68.7949231 46.7109375,68.5488281 C46.4609363,68.3027331 46.2695319,67.9746114 46.1367188,67.5644531 C46.0039056,67.1542948 45.9375,66.6406281 45.9375,66.0234375 Z M61.7578125,51.2460938 L60.4101562,50.859375 L60.5507812,50.0742188 L63.1992188,49.6640625 L63.6914062,49.9335938 L61.125,69 L59.4023438,69 L61.7578125,51.2460938 Z M62.390625,61.8515625 L62.4140625,61.8398438 L62.390625,61.8398438 C62.7890645,61.5507798 63.2011697,61.2714857 63.6269531,61.0019531 C64.0527365,60.7324205 64.468748,60.4589858 64.875,60.1816406 C65.281252,59.9042955 65.66992,59.6093766 66.0410156,59.296875 C66.4121112,58.9843734 66.7382798,58.6367207 67.0195312,58.2539062 C67.1445319,58.0820304 67.2460934,57.9140633 67.3242188,57.75 C67.4023441,57.5859367 67.4648435,57.4277351 67.5117188,57.2753906 C67.558594,57.1230461 67.595703,56.9765632 67.6230469,56.8359375 C67.6503908,56.6953118 67.6718749,56.5625006 67.6875,56.4375 C67.7187502,56.2578116 67.7734371,56.1015632 67.8515625,55.96875 C67.9296879,55.8359368 68.023437,55.7246098 68.1328125,55.6347656 C68.242188,55.5449214 68.3613275,55.4785158 68.4902344,55.4355469 C68.6191413,55.3925779 68.7499993,55.3710938 68.8828125,55.3710938 C69.1328137,55.3710938 69.3515616,55.4570304 69.5390625,55.6289062 C69.7265634,55.8007821 69.8242187,56.0312486 69.8320312,56.3203125 C69.8398438,56.515626 69.806641,56.7421862 69.7324219,57 C69.6582028,57.2578138 69.5195323,57.5234361 69.3164062,57.796875 C69.1367179,58.0625013 68.9082045,58.3261706 68.6308594,58.5878906 C68.3535142,58.8496107 68.0507829,59.1074206 67.7226562,59.3613281 C67.3945296,59.6152356 67.0527362,59.8593738 66.6972656,60.09375 C66.3417951,60.3281262 65.9960954,60.546874 65.6601562,60.75 C65.3242171,60.953126 65.0097671,61.1406241 64.7167969,61.3125 C64.4238267,61.4843759 64.1757823,61.6328119 63.9726562,61.7578125 L67.4414062,66.7851562 C67.5507818,66.941407 67.666015,67.0878899 67.7871094,67.2246094 C67.9082037,67.3613288 68.0292963,67.4804682 68.1503906,67.5820312 C68.271485,67.6835943 68.3906244,67.7636716 68.5078125,67.8222656 C68.6250006,67.8808597 68.7343745,67.9101562 68.8359375,67.9101562 C69.0000008,67.9101562 69.1914052,67.8554693 69.4101562,67.7460938 C69.6289073,67.6367182 69.8515614,67.4648449 70.078125,67.2304688 L70.3945312,67.8164062 C70.3007808,67.972657 70.1699227,68.1347648 70.0019531,68.3027344 C69.8339835,68.470704 69.638673,68.6230462 69.4160156,68.7597656 C69.1933583,68.8964851 68.9511732,69.0097652 68.6894531,69.0996094 C68.4277331,69.1894536 68.1601576,69.234375 67.8867188,69.234375 C67.5664046,69.234375 67.2539078,69.1347666 66.9492188,68.9355469 C66.6445297,68.7363271 66.3593763,68.4140647 66.09375,67.96875 L62.390625,61.8515625 Z M71.7421875,63.8789062 C71.7656251,63.136715 71.8593742,62.4121129 72.0234375,61.7050781 C72.1875008,60.9980433 72.4179673,60.3300813 72.7148438,59.7011719 C73.0117202,59.0722625 73.3632792,58.4921902 73.7695312,57.9609375 C74.1757833,57.4296848 74.6289038,56.9726582 75.1289062,56.5898438 C75.6289087,56.2070293 76.169919,55.9082042 76.7519531,55.6933594 C77.3339873,55.4785146 77.9453093,55.3710938 78.5859375,55.3710938 C79.1406278,55.3710938 79.6249979,55.4453118 80.0390625,55.59375 C80.4531271,55.7421882 80.7968736,55.9492174 81.0703125,56.2148438 C81.3437514,56.4804701 81.5468743,56.7910138 81.6796875,57.1464844 C81.8125007,57.5019549 81.8789062,57.8867167 81.8789062,58.3007812 C81.8789062,58.9101593 81.7285171,59.4628881 81.4277344,59.9589844 C81.1269516,60.4550806 80.7363305,60.8945293 80.2558594,61.2773438 C79.7753882,61.6601582 79.2304718,61.9921861 78.6210938,62.2734375 C78.0117157,62.5546889 77.4003937,62.7851554 76.7871094,62.9648438 C76.1738251,63.1445321 75.5878934,63.2812495 75.0292969,63.375 C74.4707003,63.4687505 73.9960957,63.5195312 73.6054688,63.5273438 C73.5742186,63.8320328 73.5703124,64.150389 73.59375,64.4824219 C73.6171876,64.8144548 73.6699215,65.1445296 73.7519531,65.4726562 C73.8339848,65.8007829 73.949218,66.1113267 74.0976562,66.4042969 C74.2460945,66.6972671 74.4355457,66.9570301 74.6660156,67.1835938 C74.8964855,67.4101574 75.1679672,67.5898431 75.4804688,67.7226562 C75.7929703,67.8554694 76.1562479,67.921875 76.5703125,67.921875 C76.8906266,67.921875 77.2265607,67.8867191 77.578125,67.8164062 C77.9296893,67.7460934 78.2871076,67.6347664 78.6503906,67.4824219 C79.0136737,67.3300774 79.3769513,67.1328137 79.7402344,66.890625 C80.1035174,66.6484363 80.4531233,66.3593767 80.7890625,66.0234375 L81.2226562,66.8203125 C81.0585929,67.0546887 80.818361,67.3105455 80.5019531,67.5878906 C80.1855453,67.8652358 79.8164084,68.1269519 79.3945312,68.3730469 C78.9726541,68.6191419 78.5039088,68.8242179 77.9882812,68.9882812 C77.4726537,69.1523446 76.9296904,69.234375 76.359375,69.234375 C75.5156208,69.234375 74.796878,69.0800797 74.203125,68.7714844 C73.609372,68.4628891 73.126955,68.0566431 72.7558594,67.5527344 C72.3847638,67.0488256 72.1191414,66.4765657 71.9589844,65.8359375 C71.7988273,65.1953093 71.7265624,64.5429721 71.7421875,63.8789062 Z M73.6523438,62.4726562 C74.0898459,62.4570312 74.5527319,62.4062504 75.0410156,62.3203125 C75.5292993,62.2343746 76.0117164,62.1113289 76.4882812,61.9511719 C76.9648461,61.7910148 77.4179666,61.5976574 77.8476562,61.3710938 C78.2773459,61.1445301 78.6562484,60.8847671 78.984375,60.5917969 C79.3125016,60.2988267 79.5742178,59.972658 79.7695312,59.6132812 C79.9648447,59.2539045 80.0625,58.8671896 80.0625,58.453125 C80.0625,57.7890592 79.8945329,57.2929704 79.5585938,56.9648438 C79.2226546,56.6367171 78.7617217,56.4726562 78.1757812,56.4726562 C77.7382791,56.4726562 77.3281269,56.5624991 76.9453125,56.7421875 C76.5624981,56.9218759 76.208986,57.1660141 75.8847656,57.4746094 C75.5605453,57.7832047 75.2714856,58.1386699 75.0175781,58.5410156 C74.7636706,58.9433614 74.5410166,59.3652322 74.3496094,59.8066406 C74.1582022,60.2480491 74.0039068,60.6992164 73.8867188,61.1601562 C73.7695307,61.6210961 73.6914064,62.0585917 73.6523438,62.4726562 Z"/>
  </g>
</svg>
