<svg xmlns="http://www.w3.org/2000/svg" width="18" height="15" viewBox="0 0 18 15">
  <path fill="#222222" d="M17.4606696,4.6797726 C16.8182289,4.96468461 16.1278238,5.15724444 15.4031859,5.24384865 C16.1428326,4.80048167 16.7108042,4.09845316 16.9782802,3.26198341 C16.2861508,3.6724583 15.5194882,3.97059077 14.7035201,4.13128088 C14.0500303,3.43506363 13.1190373,3 12.0887307,3 C10.1103146,3 8.50635236,4.60389837 8.50635236,6.58218695 C8.50635236,6.86294729 8.53809437,7.13636281 8.59915147,7.39853826 C5.6219154,7.2491526 2.98234547,5.82299677 1.21552163,3.65572502 C0.907170534,4.18480151 0.730513654,4.80016252 0.730513654,5.45665405 C0.730513654,6.69944702 1.36299113,7.79592037 2.32419338,8.43829728 C1.73693394,8.41971184 1.18460985,8.25857438 0.701581804,7.99026798 C0.70132632,8.00521293 0.70132632,8.02022171 0.70132632,8.03529486 C0.70132632,9.77095144 1.9361359,11.218822 3.57490585,11.5478662 C3.27428271,11.6297437 2.95782046,11.6734929 2.63107551,11.6734929 C2.40025926,11.6734929 2.17582971,11.6510755 1.95714825,11.6092423 C2.41296885,13.0324603 3.73591522,14.068132 5.30347321,14.0970639 C4.07747735,15.0578189 2.53284769,15.6305169 0.854543904,15.6305169 C0.565416815,15.6305169 0.28024948,15.6135921 0,15.5805085 C1.58531303,16.5968921 3.46831145,17.1898996 5.49130684,17.1898996 C12.0803641,17.1898996 15.6834993,11.7313567 15.6834993,6.99757949 C15.6834993,6.84225437 15.6800505,6.68775959 15.6731528,6.53415842 C16.3730102,6.0290962 16.9803878,5.39815195 17.4606696,4.6797726" transform="translate(0 -3)"/>
</svg>
