<?xml version="1.0" encoding="UTF-8" standalone="no"?>
<svg width="90px" height="90px" viewBox="0 0 90 90" version="1.1" xmlns="http://www.w3.org/2000/svg" xmlns:xlink="http://www.w3.org/1999/xlink">
    <!-- Generator: Sketch 3.8.3 (29802) - http://www.bohemiancoding.com/sketch -->
    <title>React</title>
    <desc>Created with Sketch.</desc>
    <defs></defs>
    <g id="Landing-page" stroke="none" stroke-width="1" fill="none" fill-rule="evenodd">
        <g id="Landing" transform="translate(-728.000000, -281.000000)">
            <g id="Group-15" transform="translate(425.000000, 194.000000)">
                <g id="Group-13" transform="translate(0.000000, 87.000000)">
                    <g id="Group-9" transform="translate(303.000000, 0.000000)">
                        <g id="React">
                            <g id="Layer_2">
                                <rect id="Rectangle-path" fill="#222222" x="0" y="0" width="90" height="90" rx="45"></rect>
                                <ellipse id="Oval" fill="#00D8FF" cx="44.941125" cy="44.9589545" rx="5.70297961" ry="5.69032505"></ellipse>
                                <path d="M44.941125,33.3893339 C52.5981484,33.3893339 59.7113272,34.4856122 65.0746313,36.3279041 C71.5366516,38.5475699 75.5097641,41.9122877 75.5097641,44.9589545 C75.5097641,48.1339079 71.2989469,51.7082401 64.3596984,54.0023144 C59.1132573,55.7367366 52.2097042,56.6420027 44.941125,56.6420027 C37.4889528,56.6420027 30.4321592,55.7922027 25.127855,53.9831451 C18.4155116,51.6939482 14.3724859,48.0732241 14.3724859,44.9589545 C14.3724859,41.937015 18.1659842,38.5983854 24.5371742,36.3820091 C29.920486,34.509432 37.2093002,33.3893339 44.941125,33.3893339 L44.941125,33.3893339 Z" id="Shape" stroke="#00D8FF" stroke-width="1.5"></path>
                                <path d="M34.8471455,39.2074919 C38.6723605,32.5892153 43.1777224,26.9886115 47.4565202,23.2731753 C52.6119037,18.7966396 57.5179872,17.0433883 60.1630911,18.5653606 C62.9196014,20.1514195 63.9193024,25.5767775 62.4443057,32.7206779 C61.3291059,38.1218759 58.6662679,44.5412005 55.0351045,50.8238447 C51.3122014,57.2651742 47.0490914,62.9400731 42.8284977,66.6211407 C37.4877023,71.2793876 32.3244748,72.9650359 29.6205984,71.4092622 C26.9969799,69.8995402 25.9935275,64.9528468 27.2521913,58.3386535 C28.3156668,52.7500731 30.9845298,45.8905358 34.8471455,39.2074919 L34.8471455,39.2074919 Z" id="Shape" stroke="#00D8FF" stroke-width="1.5"></path>
                                <path d="M34.8568083,50.840632 C31.0205664,44.2287073 28.4076338,37.5370429 27.3184667,31.9827176 C26.0061459,25.2905995 26.9340013,20.1738781 29.5766043,18.6474822 C32.3303862,17.0567728 37.5404497,18.9020139 43.0067478,23.7449209 C47.1396943,27.4063655 51.3835924,32.9140721 55.025328,39.1907047 C58.7590307,45.6257957 61.5574888,52.1451634 62.6459739,57.6319993 C64.0234332,64.5752462 62.9084608,69.8803709 60.2071989,71.4406817 C57.5860815,72.954714 52.7896991,71.3517544 47.6752403,66.9604028 C43.3539262,63.2500709 38.7306783,57.5172105 34.8568083,50.840632 L34.8568083,50.840632 Z" id="Shape" stroke="#00D8FF" stroke-width="1.5"></path>
                            </g>
                        </g>
                    </g>
                </g>
            </g>
        </g>
    </g>
</svg>