<?xml version="1.0" encoding="UTF-8" standalone="no"?>
<svg width="90px" height="90px" viewBox="0 0 90 90" version="1.1" xmlns="http://www.w3.org/2000/svg" xmlns:xlink="http://www.w3.org/1999/xlink">
    <!-- Generator: Sketch 3.8.3 (29802) - http://www.bohemiancoding.com/sketch -->
    <title>React</title>
    <desc>Created with Sketch.</desc>
    <defs>
        <linearGradient x1="21.0657903%" y1="6.80130426%" x2="75.9073916%" y2="92.9587776%" id="linearGradient-1">
            <stop stop-color="#F8D44A" offset="0%"></stop>
            <stop stop-color="#EE8B35" offset="100%"></stop>
        </linearGradient>
    </defs>
    <g id="Landing-page" stroke="none" stroke-width="1" fill="none" fill-rule="evenodd">
        <g id="Landing" transform="translate(-868.000000, -281.000000)">
            <g id="Group-15" transform="translate(425.000000, 194.000000)">
                <g id="Group-13" transform="translate(0.000000, 87.000000)">
                    <g id="Group-11" transform="translate(443.000000, 0.000000)">
                        <g id="Group-9">
                            <g id="React">
                                <g id="Layer_2">
                                    <rect id="Rectangle-path" fill="url(#linearGradient-1)" x="0" y="0" width="90" height="90" rx="45"></rect>
                                    <g id="sketch-logo" transform="translate(17.000000, 23.000000)" fill="#FFFFFF">
                                        <path d="M47.2098366,4.15559331 L55.0009299,13.1565833 L27.5004649,50.3199997 L0,13.1565833 L7.79109326,4.15559331 L17.6489522,0 L37.3540931,0 L47.2119521,4.15559331 L47.2098366,4.15559331 Z M19.2503255,36.1465331 L11.916163,22.8054432 L6.14106537,18.4653432 L19.2503255,36.1465331 L19.2503255,36.1465331 Z M40.7472274,23.0842999 L14.1627394,23.0842999 L27.4539257,47.2274164 L40.7472274,23.0822032 L40.7472274,23.0842999 Z M35.6596414,36.1465331 L42.9916884,22.8054432 L48.766786,18.4653432 L35.6596414,36.1465331 L35.6596414,36.1465331 Z M12.3265546,20.8198999 L2.29311569,13.2509333 L8.38975723,6.18516663 L17.0502883,10.3868866 L12.32867,20.8198999 L12.3265546,20.8198999 Z M18.7468554,11.0787866 L14.1627394,21.2350399 L40.7472274,21.2350399 L36.1631114,11.0787866 L18.7468554,11.0787866 L18.7468554,11.0787866 Z M42.5791814,20.8198999 L52.6168511,13.2509333 L46.5244404,6.18516663 L37.8596786,10.3868866 L42.577066,20.8198999 L42.5791814,20.8198999 Z M36.1631114,9.23371994 L18.7468554,9.23371994 L10.3126744,5.07812664 L17.9662653,1.84925999 L36.9415861,1.84925999 L44.5994079,5.07812664 L36.1631114,9.23371994 L36.1631114,9.23371994 Z" id="Shape"></path>
                                    </g>
                                </g>
                            </g>
                        </g>
                    </g>
                </g>
            </g>
        </g>
    </g>
</svg>