<?xml version="1.0" encoding="UTF-8" standalone="no"?>
<svg width="18px" height="15px" viewBox="0 0 18 15" version="1.1" xmlns="http://www.w3.org/2000/svg" xmlns:xlink="http://www.w3.org/1999/xlink">
    <!-- Generator: Sketch 3.8.3 (29802) - http://www.bohemiancoding.com/sketch -->
    <title>Fill-1</title>
    <desc>Created with Sketch.</desc>
    <defs></defs>
    <g id="Landing-page" stroke="none" stroke-width="1" fill="none" fill-rule="evenodd">
        <g id="Landing" transform="translate(-150.000000, -328.000000)" fill="#222222">
            <g id="Group-12" transform="translate(150.000000, 253.000000)">
                <g id="Group-4" transform="translate(0.000000, 70.000000)">
                    <g id="twitter" transform="translate(0.000000, 5.000000)">
                        <g id="Fill-1">
                            <g id="Landing">
                                <g id="Contact">
                                    <g id="hello@lukerollans.me-+-0425-078-349-+-GitHub/lukerollans">
                                        <path d="M17.7320012,1.6797726 C17.0895605,1.96468461 16.3991554,2.15724444 15.6745175,2.24384865 C16.4141642,1.80048167 16.9821358,1.09845316 17.2496118,0.261983407 C16.5574824,0.672458304 15.7908198,0.970590767 14.9748517,1.13128088 C14.3213619,0.43506363 13.3903689,0 12.3600623,0 C10.3816462,0 8.77768392,1.60389837 8.77768392,3.58218695 C8.77768392,3.86294729 8.80942593,4.13636281 8.87048303,4.39853826 C5.89324696,4.2491526 3.25367703,2.82299677 1.48685319,0.655725024 C1.17850209,1.18480151 1.00184521,1.80016252 1.00184521,2.45665405 C1.00184521,3.69944702 1.63432269,4.79592037 2.59552494,5.43829728 C2.0082655,5.41971184 1.45594141,5.25857438 0.97291336,4.99026798 C0.972657876,5.00521293 0.972657876,5.02022171 0.972657876,5.03529486 C0.972657876,6.77095144 2.20746746,8.21882201 3.84623741,8.5478662 C3.54561427,8.62974372 3.22915202,8.67349291 2.90240707,8.67349291 C2.67159082,8.67349291 2.44716127,8.65107549 2.22847981,8.60924229 C2.68430041,10.0324603 4.00724678,11.068132 5.57480477,11.0970639 C4.34880891,12.0578189 2.80417925,12.6305169 1.12587546,12.6305169 C0.836748371,12.6305169 0.551581036,12.6135921 0.271331556,12.5805085 C1.85664459,13.5968921 3.73964301,14.1898996 5.7626384,14.1898996 C12.3516957,14.1898996 15.9548309,8.73135671 15.9548309,3.99757949 C15.9548309,3.84225437 15.9513821,3.68775959 15.9444844,3.53415842 C16.6443418,3.0290962 17.2517194,2.39815195 17.7320012,1.6797726" id="Fill-1"></path>
                                    </g>
                                </g>
                            </g>
                        </g>
                    </g>
                </g>
            </g>
        </g>
    </g>
</svg>